<?xml version="1.0" encoding="UTF-8"?>
<svg width="640" height="480" xmlns="http://www.w3.org/2000/svg">
 <g>
  <title>Heatmap</title>
  <rect x="10" y="10" fill="#727272" stroke="#727272" stroke-miterlimit="10" width="47.692" height="46" id="0_0"/>
  <rect x="57.692" y="10" fill="#727272" stroke="#727272" stroke-miterlimit="10" width="47.692" height="46" id="1_0"/>
  <rect x="105.385" y="10" fill="#727272" stroke="#727272" stroke-miterlimit="10" width="47.692" height="46" id="2_0"/>
  <rect x="153.077" y="10" fill="#727272" stroke="#727272" stroke-miterlimit="10" width="47.692" height="46" id="3_0"/>
  <rect x="200.769" y="10" fill="#727272" stroke="#727272" stroke-miterlimit="10" width="47.692" height="46" id="4_0"/>
  <rect x="248.461" y="10" fill="#727272" stroke="#727272" stroke-miterlimit="10" width="47.692" height="46" id="5_0"/>
  <rect x="296.154" y="10" fill="#727272" stroke="#727272" stroke-miterlimit="10" width="47.692" height="46" id="6_0"/>
  <rect x="343.846" y="10" fill="#727272" stroke="#727272" stroke-miterlimit="10" width="47.692" height="46" id="7_0"/>
  <rect x="391.538" y="10" fill="#727272" stroke="#727272" stroke-miterlimit="10" width="47.692" height="46" id="8_0"/>
  <rect x="439.23" y="10" fill="#727272" stroke="#727272" stroke-miterlimit="10" width="47.692" height="46" id="9_0"/>
  <rect x="486.923" y="10" fill="#727272" stroke="#727272" stroke-miterlimit="10" width="47.692" height="46" id="10_0"/>
  <rect x="534.615" y="10" fill="#727272" stroke="#727272" stroke-miterlimit="10" width="47.692" height="46" id="11_0"/>
  <rect x="582.308" y="10" fill="#727272" stroke="#727272" stroke-miterlimit="10" width="47.692" height="46" id="12_0"/>
  <rect x="10" y="56" fill="#727272" stroke="#727272" stroke-miterlimit="10" width="47.692" height="46" id="0_1"/>
  <rect x="57.692" y="56" fill="#727272" stroke="#727272" stroke-miterlimit="10" width="47.692" height="46" id="1_1"/>
  <rect x="105.385" y="56" fill="#727272" stroke="#727272" stroke-miterlimit="10" width="47.692" height="46" id="2_1"/>
  <rect x="153.077" y="56" fill="#727272" stroke="#727272" stroke-miterlimit="10" width="47.692" height="46" id="3_1"/>
  <rect x="200.769" y="56" fill="#727272" stroke="#727272" stroke-miterlimit="10" width="47.692" height="46" id="4_1"/>
  <rect x="248.461" y="56" fill="#727272" stroke="#727272" stroke-miterlimit="10" width="47.692" height="46" id="5_1"/>
  <rect x="296.154" y="56" fill="#727272" stroke="#727272" stroke-miterlimit="10" width="47.692" height="46" id="6_1"/>
  <rect x="343.846" y="56" fill="#727272" stroke="#727272" stroke-miterlimit="10" width="47.692" height="46" id="7_1"/>
  <rect x="391.538" y="56" fill="#727272" stroke="#727272" stroke-miterlimit="10" width="47.692" height="46" id="8_1"/>
  <rect x="439.23" y="56" fill="#727272" stroke="#727272" stroke-miterlimit="10" width="47.692" height="46" id="9_1"/>
  <rect x="486.923" y="56" fill="#727272" stroke="#727272" stroke-miterlimit="10" width="47.692" height="46" id="10_1"/>
  <rect x="534.615" y="56" fill="#727272" stroke="#727272" stroke-miterlimit="10" width="47.692" height="46" id="11_1"/>
  <rect x="582.308" y="56" fill="#727272" stroke="#727272" stroke-miterlimit="10" width="47.692" height="46" id="12_1"/>
  <rect x="10" y="102" fill="#727272" stroke="#727272" stroke-miterlimit="10" width="47.692" height="46" id="0_2"/>
  <rect x="57.692" y="102" fill="#727272" stroke="#727272" stroke-miterlimit="10" width="47.692" height="46" id="1_2"/>
  <rect x="105.385" y="102" fill="#727272" stroke="#727272" stroke-miterlimit="10" width="47.692" height="46" id="2_2"/>
  <rect x="153.077" y="102" fill="#727272" stroke="#727272" stroke-miterlimit="10" width="47.692" height="46" id="3_2"/>
  <rect x="200.769" y="102" fill="#727272" stroke="#727272" stroke-miterlimit="10" width="47.692" height="46" id="4_2"/>
  <rect x="248.461" y="102" fill="#727272" stroke="#727272" stroke-miterlimit="10" width="47.692" height="46" id="5_2"/>
  <rect x="296.154" y="102" fill="#727272" stroke="#727272" stroke-miterlimit="10" width="47.692" height="46" id="6_2"/>
  <rect x="343.846" y="102" fill="#727272" stroke="#727272" stroke-miterlimit="10" width="47.692" height="46" id="7_2"/>
  <rect x="391.538" y="102" fill="#727272" stroke="#727272" stroke-miterlimit="10" width="47.692" height="46" id="8_2"/>
  <rect x="439.23" y="102" fill="#727272" stroke="#727272" stroke-miterlimit="10" width="47.692" height="46" id="9_2"/>
  <rect x="486.923" y="102" fill="#727272" stroke="#727272" stroke-miterlimit="10" width="47.692" height="46" id="10_2"/>
  <rect x="534.615" y="102" fill="#727272" stroke="#727272" stroke-miterlimit="10" width="47.692" height="46" id="11_2"/>
  <rect x="582.308" y="102" fill="#727272" stroke="#727272" stroke-miterlimit="10" width="47.692" height="46" id="12_2"/>
  <rect x="10" y="148" fill="#727272" stroke="#727272" stroke-miterlimit="10" width="47.692" height="46" id="0_3"/>
  <rect x="57.692" y="148" fill="#727272" stroke="#727272" stroke-miterlimit="10" width="47.692" height="46" id="1_3"/>
  <rect x="105.385" y="148" fill="#727272" stroke="#727272" stroke-miterlimit="10" width="47.692" height="46" id="2_3"/>
  <rect x="153.077" y="148" fill="#727272" stroke="#727272" stroke-miterlimit="10" width="47.692" height="46" id="3_3"/>
  <rect x="200.769" y="148" fill="#727272" stroke="#727272" stroke-miterlimit="10" width="47.692" height="46" id="4_3"/>
  <rect x="248.461" y="148" fill="#727272" stroke="#727272" stroke-miterlimit="10" width="47.692" height="46" id="5_3"/>
  <rect x="296.154" y="148" fill="#727272" stroke="#727272" stroke-miterlimit="10" width="47.692" height="46" id="6_3"/>
  <rect x="343.846" y="148" fill="#727272" stroke="#727272" stroke-miterlimit="10" width="47.692" height="46" id="7_3"/>
  <rect x="391.538" y="148" fill="#727272" stroke="#727272" stroke-miterlimit="10" width="47.692" height="46" id="8_3"/>
  <rect x="439.23" y="148" fill="#727272" stroke="#727272" stroke-miterlimit="10" width="47.692" height="46" id="9_3"/>
  <rect x="486.923" y="148" fill="#727272" stroke="#727272" stroke-miterlimit="10" width="47.692" height="46" id="10_3"/>
  <rect x="534.615" y="148" fill="#727272" stroke="#727272" stroke-miterlimit="10" width="47.692" height="46" id="11_3"/>
  <rect x="582.308" y="148" fill="#727272" stroke="#727272" stroke-miterlimit="10" width="47.692" height="46" id="12_3"/>
  <rect x="10" y="194" fill="#727272" stroke="#727272" stroke-miterlimit="10" width="47.692" height="46" id="0_4"/>
  <rect x="57.692" y="194" fill="#727272" stroke="#727272" stroke-miterlimit="10" width="47.692" height="46" id="1_4"/>
  <rect x="105.385" y="194" fill="#727272" stroke="#727272" stroke-miterlimit="10" width="47.692" height="46" id="2_4"/>
  <rect x="153.077" y="194" fill="#727272" stroke="#727272" stroke-miterlimit="10" width="47.692" height="46" id="3_4"/>
  <rect x="200.769" y="194" fill="#727272" stroke="#727272" stroke-miterlimit="10" width="47.692" height="46" id="4_4"/>
  <rect x="248.461" y="194" fill="#727272" stroke="#727272" stroke-miterlimit="10" width="47.692" height="46" id="5_4"/>
  <rect x="296.154" y="194" fill="#727272" stroke="#727272" stroke-miterlimit="10" width="47.692" height="46" id="6_4"/>
  <rect x="343.846" y="194" fill="#727272" stroke="#727272" stroke-miterlimit="10" width="47.692" height="46" id="7_4"/>
  <rect x="391.538" y="194" fill="#727272" stroke="#727272" stroke-miterlimit="10" width="47.692" height="46" id="8_4"/>
  <rect x="439.23" y="194" fill="#727272" stroke="#727272" stroke-miterlimit="10" width="47.692" height="46" id="9_4"/>
  <rect x="486.923" y="194" fill="#727272" stroke="#727272" stroke-miterlimit="10" width="47.692" height="46" id="10_4"/>
  <rect x="534.615" y="194" fill="#727272" stroke="#727272" stroke-miterlimit="10" width="47.692" height="46" id="11_4"/>
  <rect x="582.308" y="194" fill="#727272" stroke="#727272" stroke-miterlimit="10" width="47.692" height="46" id="12_4"/>
  <rect x="10" y="240" fill="#727272" stroke="#727272" stroke-miterlimit="10" width="47.692" height="46" id="0_5"/>
  <rect x="57.692" y="240" fill="#727272" stroke="#727272" stroke-miterlimit="10" width="47.692" height="46" id="1_5"/>
  <rect x="105.385" y="240" fill="#727272" stroke="#727272" stroke-miterlimit="10" width="47.692" height="46" id="2_5"/>
  <rect x="153.077" y="240" fill="#727272" stroke="#727272" stroke-miterlimit="10" width="47.692" height="46" id="3_5"/>
  <rect x="200.769" y="240" fill="#727272" stroke="#727272" stroke-miterlimit="10" width="47.692" height="46" id="4_5"/>
  <rect x="248.461" y="240" fill="#727272" stroke="#727272" stroke-miterlimit="10" width="47.692" height="46" id="5_5"/>
  <rect x="296.154" y="240" fill="#727272" stroke="#727272" stroke-miterlimit="10" width="47.692" height="46" id="6_5"/>
  <rect x="343.846" y="240" fill="#727272" stroke="#727272" stroke-miterlimit="10" width="47.692" height="46" id="7_5"/>
  <rect x="391.538" y="240" fill="#727272" stroke="#727272" stroke-miterlimit="10" width="47.692" height="46" id="8_5"/>
  <rect x="439.23" y="240" fill="#727272" stroke="#727272" stroke-miterlimit="10" width="47.692" height="46" id="9_5"/>
  <rect x="486.923" y="240" fill="#727272" stroke="#727272" stroke-miterlimit="10" width="47.692" height="46" id="10_5"/>
  <rect x="534.615" y="240" fill="#727272" stroke="#727272" stroke-miterlimit="10" width="47.692" height="46" id="11_5"/>
  <rect x="582.308" y="240" fill="#727272" stroke="#727272" stroke-miterlimit="10" width="47.692" height="46" id="12_5"/>
  <rect x="10" y="286" fill="#727272" stroke="#727272" stroke-miterlimit="10" width="47.692" height="46" id="0_6"/>
  <rect x="57.692" y="286" fill="#727272" stroke="#727272" stroke-miterlimit="10" width="47.692" height="46" id="1_6"/>
  <rect x="105.385" y="286" fill="#727272" stroke="#727272" stroke-miterlimit="10" width="47.692" height="46" id="2_6"/>
  <rect x="153.077" y="286" fill="#727272" stroke="#727272" stroke-miterlimit="10" width="47.692" height="46" id="3_6"/>
  <rect x="200.769" y="286" fill="#727272" stroke="#727272" stroke-miterlimit="10" width="47.692" height="46" id="4_6"/>
  <rect x="248.461" y="286" fill="#727272" stroke="#727272" stroke-miterlimit="10" width="47.692" height="46" id="5_6"/>
  <rect x="296.154" y="286" fill="#727272" stroke="#727272" stroke-miterlimit="10" width="47.692" height="46" id="6_6"/>
  <rect x="343.846" y="286" fill="#727272" stroke="#727272" stroke-miterlimit="10" width="47.692" height="46" id="7_6"/>
  <rect x="391.538" y="286" fill="#727272" stroke="#727272" stroke-miterlimit="10" width="47.692" height="46" id="8_6"/>
  <rect x="439.23" y="286" fill="#727272" stroke="#727272" stroke-miterlimit="10" width="47.692" height="46" id="9_6"/>
  <rect x="486.923" y="286" fill="#727272" stroke="#727272" stroke-miterlimit="10" width="47.692" height="46" id="10_6"/>
  <rect x="534.615" y="286" fill="#727272" stroke="#727272" stroke-miterlimit="10" width="47.692" height="46" id="11_6"/>
  <rect x="582.308" y="286" fill="#727272" stroke="#727272" stroke-miterlimit="10" width="47.692" height="46" id="12_6"/>
  <rect x="10" y="332" fill="#727272" stroke="#727272" stroke-miterlimit="10" width="47.692" height="46" id="0_7"/>
  <rect x="57.692" y="332" fill="#727272" stroke="#727272" stroke-miterlimit="10" width="47.692" height="46" id="1_7"/>
  <rect x="105.385" y="332" fill="#727272" stroke="#727272" stroke-miterlimit="10" width="47.692" height="46" id="2_7"/>
  <rect x="153.077" y="332" fill="#727272" stroke="#727272" stroke-miterlimit="10" width="47.692" height="46" id="3_7"/>
  <rect x="200.769" y="332" fill="#727272" stroke="#727272" stroke-miterlimit="10" width="47.692" height="46" id="4_7"/>
  <rect x="248.461" y="332" fill="#727272" stroke="#727272" stroke-miterlimit="10" width="47.692" height="46" id="5_7"/>
  <rect x="296.154" y="332" fill="#727272" stroke="#727272" stroke-miterlimit="10" width="47.692" height="46" id="6_7"/>
  <rect x="343.846" y="332" fill="#727272" stroke="#727272" stroke-miterlimit="10" width="47.692" height="46" id="7_7"/>
  <rect x="391.538" y="332" fill="#727272" stroke="#727272" stroke-miterlimit="10" width="47.692" height="46" id="8_7"/>
  <rect x="439.23" y="332" fill="#727272" stroke="#727272" stroke-miterlimit="10" width="47.692" height="46" id="9_7"/>
  <rect x="486.923" y="332" fill="#727272" stroke="#727272" stroke-miterlimit="10" width="47.692" height="46" id="10_7"/>
  <rect x="534.615" y="332" fill="#727272" stroke="#727272" stroke-miterlimit="10" width="47.692" height="46" id="11_7"/>
  <rect x="582.308" y="332" fill="#727272" stroke="#727272" stroke-miterlimit="10" width="47.692" height="46" id="12_7"/>
  <rect x="10" y="378" fill="#727272" stroke="#727272" stroke-miterlimit="10" width="47.692" height="46" id="0_8"/>
  <rect x="57.692" y="378" fill="#727272" stroke="#727272" stroke-miterlimit="10" width="47.692" height="46" id="1_8"/>
  <rect x="105.385" y="378" fill="#727272" stroke="#727272" stroke-miterlimit="10" width="47.692" height="46" id="2_8"/>
  <rect x="153.077" y="378" fill="#727272" stroke="#727272" stroke-miterlimit="10" width="47.692" height="46" id="3_8"/>
  <rect x="200.769" y="378" fill="#727272" stroke="#727272" stroke-miterlimit="10" width="47.692" height="46" id="4_8"/>
  <rect x="248.461" y="378" fill="#727272" stroke="#727272" stroke-miterlimit="10" width="47.692" height="46" id="5_8"/>
  <rect x="296.154" y="378" fill="#727272" stroke="#727272" stroke-miterlimit="10" width="47.692" height="46" id="6_8"/>
  <rect x="343.846" y="378" fill="#727272" stroke="#727272" stroke-miterlimit="10" width="47.692" height="46" id="7_8"/>
  <rect x="391.538" y="378" fill="#727272" stroke="#727272" stroke-miterlimit="10" width="47.692" height="46" id="8_8"/>
  <rect x="439.23" y="378" fill="#727272" stroke="#727272" stroke-miterlimit="10" width="47.692" height="46" id="9_8"/>
  <rect x="486.923" y="378" fill="#727272" stroke="#727272" stroke-miterlimit="10" width="47.692" height="46" id="10_8"/>
  <rect x="534.615" y="378" fill="#727272" stroke="#727272" stroke-miterlimit="10" width="47.692" height="46" id="11_8"/>
  <rect x="582.308" y="378" fill="#727272" stroke="#727272" stroke-miterlimit="10" width="47.692" height="46" id="12_8"/>
  <rect x="10" y="424" fill="#727272" stroke="#727272" stroke-miterlimit="10" width="47.692" height="46" id="0_9"/>
  <rect x="57.692" y="424" fill="#727272" stroke="#727272" stroke-miterlimit="10" width="47.692" height="46" id="1_9"/>
  <rect x="105.385" y="424" fill="#727272" stroke="#727272" stroke-miterlimit="10" width="47.692" height="46" id="2_9"/>
  <rect x="153.077" y="424" fill="#727272" stroke="#727272" stroke-miterlimit="10" width="47.692" height="46" id="3_9"/>
  <rect x="200.769" y="424" fill="#727272" stroke="#727272" stroke-miterlimit="10" width="47.692" height="46" id="4_9"/>
  <rect x="248.461" y="424" fill="#727272" stroke="#727272" stroke-miterlimit="10" width="47.692" height="46" id="5_9"/>
  <rect x="296.154" y="424" fill="#727272" stroke="#727272" stroke-miterlimit="10" width="47.692" height="46" id="6_9"/>
  <rect x="343.846" y="424" fill="#727272" stroke="#727272" stroke-miterlimit="10" width="47.692" height="46" id="7_9"/>
  <rect x="391.538" y="424" fill="#727272" stroke="#727272" stroke-miterlimit="10" width="47.692" height="46" id="8_9"/>
  <rect x="439.23" y="424" fill="#727272" stroke="#727272" stroke-miterlimit="10" width="47.692" height="46" id="9_9"/>
  <rect x="486.923" y="424" fill="#727272" stroke="#727272" stroke-miterlimit="10" width="47.692" height="46" id="10_9"/>
  <rect x="534.615" y="424" fill="#727272" stroke="#727272" stroke-miterlimit="10" width="47.692" height="46" id="11_9"/>
  <rect x="582.308" y="424" fill="#727272" stroke="#727272" stroke-miterlimit="10" width="47.692" height="46" id="12_9"/>
 </g>
</svg>