<?xml version="1.0" encoding="UTF-8" standalone="no"?>
<svg id="svg2" xmlns:rdf="http://www.w3.org/1999/02/22-rdf-syntax-ns#" xmlns="http://www.w3.org/2000/svg" height="480" width="640" version="1.1" xmlns:cc="http://creativecommons.org/ns#" xmlns:dc="http://purl.org/dc/elements/1.1/">
 <metadata id="metadata142">
  <rdf:RDF>
   <cc:Work rdf:about="">
    <dc:format>image/svg+xml</dc:format>
    <dc:type rdf:resource="http://purl.org/dc/dcmitype/StillImage"/>
    <dc:title/>
   </cc:Work>
  </rdf:RDF>
 </metadata>
 <g id="g4" transform="matrix(1,0,0,0.89154013,-7.8628221e-6,26.030369)">
  <title id="title6">Heatmap</title>
  <rect id="0_0" height="46" width="47.692" stroke="#727272" stroke-miterlimit="10" y="10" x="10" fill="#727272"/>
  <rect id="1_0" height="46" width="47.692" stroke="#727272" stroke-miterlimit="10" y="10" x="57.692" fill="#727272"/>
  <rect id="2_0" height="46" width="47.692" stroke="#727272" stroke-miterlimit="10" y="10" x="105.38" fill="#727272"/>
  <rect id="3_0" height="46" width="47.692" stroke="#727272" stroke-miterlimit="10" y="10" x="153.08" fill="#727272"/>
  <rect id="4_0" height="46" width="47.692" stroke="#727272" stroke-miterlimit="10" y="10" x="200.77" fill="#727272"/>
  <rect id="5_0" height="46" width="47.692" stroke="#727272" stroke-miterlimit="10" y="10" x="248.46" fill="#727272"/>
  <rect id="6_0" height="46" width="47.692" stroke="#727272" stroke-miterlimit="10" y="10" x="296.15" fill="#727272"/>
  <rect id="7_0" height="46" width="47.692" stroke="#727272" stroke-miterlimit="10" y="10" x="343.85" fill="#727272"/>
  <rect id="8_0" height="46" width="47.692" stroke="#727272" stroke-miterlimit="10" y="10" x="391.54" fill="#727272"/>
  <rect id="9_0" height="46" width="47.692" stroke="#727272" stroke-miterlimit="10" y="10" x="439.23" fill="#727272"/>
  <rect id="10_0" height="46" width="47.692" stroke="#727272" stroke-miterlimit="10" y="10" x="486.92" fill="#727272"/>
  <rect id="11_0" height="46" width="47.692" stroke="#727272" stroke-miterlimit="10" y="10" x="534.61" fill="#727272"/>
  <rect id="12_0" height="46" width="47.692" stroke="#727272" stroke-miterlimit="10" y="10" x="582.31" fill="#727272"/>
  <rect id="0_1" height="46" width="47.692" stroke="#727272" stroke-miterlimit="10" y="56" x="10" fill="#727272"/>
  <rect id="1_1" height="46" width="47.692" stroke="#727272" stroke-miterlimit="10" y="56" x="57.692" fill="#727272"/>
  <rect id="2_1" height="46" width="47.692" stroke="#727272" stroke-miterlimit="10" y="56" x="105.38" fill="#727272"/>
  <rect id="3_1" height="46" width="47.692" stroke="#727272" stroke-miterlimit="10" y="56" x="153.08" fill="#727272"/>
  <rect id="4_1" height="46" width="47.692" stroke="#727272" stroke-miterlimit="10" y="56" x="200.77" fill="#727272"/>
  <rect id="5_1" height="46" width="47.692" stroke="#727272" stroke-miterlimit="10" y="56" x="248.46" fill="#727272"/>
  <rect id="6_1" height="46" width="47.692" stroke="#727272" stroke-miterlimit="10" y="56" x="296.15" fill="#727272"/>
  <rect id="7_1" height="46" width="47.692" stroke="#727272" stroke-miterlimit="10" y="56" x="343.85" fill="#727272"/>
  <rect id="8_1" height="46" width="47.692" stroke="#727272" stroke-miterlimit="10" y="56" x="391.54" fill="#727272"/>
  <rect id="9_1" height="46" width="47.692" stroke="#727272" stroke-miterlimit="10" y="56" x="439.23" fill="#727272"/>
  <rect id="10_1" height="46" width="47.692" stroke="#727272" stroke-miterlimit="10" y="56" x="486.92" fill="#727272"/>
  <rect id="11_1" height="46" width="47.692" stroke="#727272" stroke-miterlimit="10" y="56" x="534.61" fill="#727272"/>
  <rect id="12_1" height="46" width="47.692" stroke="#727272" stroke-miterlimit="10" y="56" x="582.31" fill="#727272"/>
  <rect id="0_2" height="46" width="47.692" stroke="#727272" stroke-miterlimit="10" y="102" x="10" fill="#727272"/>
  <rect id="1_2" height="46" width="47.692" stroke="#727272" stroke-miterlimit="10" y="102" x="57.692" fill="#727272"/>
  <rect id="2_2" height="46" width="47.692" stroke="#727272" stroke-miterlimit="10" y="102" x="105.38" fill="#727272"/>
  <rect id="3_2" height="46" width="47.692" stroke="#727272" stroke-miterlimit="10" y="102" x="153.08" fill="#727272"/>
  <rect id="4_2" height="46" width="47.692" stroke="#727272" stroke-miterlimit="10" y="102" x="200.77" fill="#727272"/>
  <rect id="5_2" height="46" width="47.692" stroke="#727272" stroke-miterlimit="10" y="102" x="248.46" fill="#727272"/>
  <rect id="6_2" height="46" width="47.692" stroke="#727272" stroke-miterlimit="10" y="102" x="296.15" fill="#727272"/>
  <rect id="7_2" height="46" width="47.692" stroke="#727272" stroke-miterlimit="10" y="102" x="343.85" fill="#727272"/>
  <rect id="8_2" height="46" width="47.692" stroke="#727272" stroke-miterlimit="10" y="102" x="391.54" fill="#727272"/>
  <rect id="9_2" height="46" width="47.692" stroke="#727272" stroke-miterlimit="10" y="102" x="439.23" fill="#727272"/>
  <rect id="10_2" height="46" width="47.692" stroke="#727272" stroke-miterlimit="10" y="102" x="486.92" fill="#727272"/>
  <rect id="11_2" height="46" width="47.692" stroke="#727272" stroke-miterlimit="10" y="102" x="534.61" fill="#727272"/>
  <rect id="12_2" height="46" width="47.692" stroke="#727272" stroke-miterlimit="10" y="102" x="582.31" fill="#727272"/>
  <rect id="0_3" height="46" width="47.692" stroke="#727272" stroke-miterlimit="10" y="148" x="10" fill="#727272"/>
  <rect id="1_3" height="46" width="47.692" stroke="#727272" stroke-miterlimit="10" y="148" x="57.692" fill="#727272"/>
  <rect id="2_3" height="46" width="47.692" stroke="#727272" stroke-miterlimit="10" y="148" x="105.38" fill="#727272"/>
  <rect id="3_3" height="46" width="47.692" stroke="#727272" stroke-miterlimit="10" y="148" x="153.08" fill="#727272"/>
  <rect id="4_3" height="46" width="47.692" stroke="#727272" stroke-miterlimit="10" y="148" x="200.77" fill="#727272"/>
  <rect id="5_3" height="46" width="47.692" stroke="#727272" stroke-miterlimit="10" y="148" x="248.46" fill="#727272"/>
  <rect id="6_3" height="46" width="47.692" stroke="#727272" stroke-miterlimit="10" y="148" x="296.15" fill="#727272"/>
  <rect id="7_3" height="46" width="47.692" stroke="#727272" stroke-miterlimit="10" y="148" x="343.85" fill="#727272"/>
  <rect id="8_3" height="46" width="47.692" stroke="#727272" stroke-miterlimit="10" y="148" x="391.54" fill="#727272"/>
  <rect id="9_3" height="46" width="47.692" stroke="#727272" stroke-miterlimit="10" y="148" x="439.23" fill="#727272"/>
  <rect id="10_3" height="46" width="47.692" stroke="#727272" stroke-miterlimit="10" y="148" x="486.92" fill="#727272"/>
  <rect id="11_3" height="46" width="47.692" stroke="#727272" stroke-miterlimit="10" y="148" x="534.61" fill="#727272"/>
  <rect id="12_3" height="46" width="47.692" stroke="#727272" stroke-miterlimit="10" y="148" x="582.31" fill="#727272"/>
  <rect id="0_4" height="46" width="47.692" stroke="#727272" stroke-miterlimit="10" y="194" x="10" fill="#727272"/>
  <rect id="1_4" height="46" width="47.692" stroke="#727272" stroke-miterlimit="10" y="194" x="57.692" fill="#727272"/>
  <rect id="2_4" height="46" width="47.692" stroke="#727272" stroke-miterlimit="10" y="194" x="105.38" fill="#727272"/>
  <rect id="3_4" height="46" width="47.692" stroke="#727272" stroke-miterlimit="10" y="194" x="153.08" fill="#727272"/>
  <rect id="4_4" height="46" width="47.692" stroke="#727272" stroke-miterlimit="10" y="194" x="200.77" fill="#727272"/>
  <rect id="5_4" height="46" width="47.692" stroke="#727272" stroke-miterlimit="10" y="194" x="248.46" fill="#727272"/>
  <rect id="6_4" height="46" width="47.692" stroke="#727272" stroke-miterlimit="10" y="194" x="296.15" fill="#727272"/>
  <rect id="7_4" height="46" width="47.692" stroke="#727272" stroke-miterlimit="10" y="194" x="343.85" fill="#727272"/>
  <rect id="8_4" height="46" width="47.692" stroke="#727272" stroke-miterlimit="10" y="194" x="391.54" fill="#727272"/>
  <rect id="9_4" height="46" width="47.692" stroke="#727272" stroke-miterlimit="10" y="194" x="439.23" fill="#727272"/>
  <rect id="10_4" height="46" width="47.692" stroke="#727272" stroke-miterlimit="10" y="194" x="486.92" fill="#727272"/>
  <rect id="11_4" height="46" width="47.692" stroke="#727272" stroke-miterlimit="10" y="194" x="534.61" fill="#727272"/>
  <rect id="12_4" height="46" width="47.692" stroke="#727272" stroke-miterlimit="10" y="194" x="582.31" fill="#727272"/>
  <rect id="0_5" height="46" width="47.692" stroke="#727272" stroke-miterlimit="10" y="240" x="10" fill="#727272"/>
  <rect id="1_5" height="46" width="47.692" stroke="#727272" stroke-miterlimit="10" y="240" x="57.692" fill="#727272"/>
  <rect id="2_5" height="46" width="47.692" stroke="#727272" stroke-miterlimit="10" y="240" x="105.38" fill="#727272"/>
  <rect id="3_5" height="46" width="47.692" stroke="#727272" stroke-miterlimit="10" y="240" x="153.08" fill="#727272"/>
  <rect id="4_5" height="46" width="47.692" stroke="#727272" stroke-miterlimit="10" y="240" x="200.77" fill="#727272"/>
  <rect id="5_5" height="46" width="47.692" stroke="#727272" stroke-miterlimit="10" y="240" x="248.46" fill="#727272"/>
  <rect id="6_5" height="46" width="47.692" stroke="#727272" stroke-miterlimit="10" y="240" x="296.15" fill="#727272"/>
  <rect id="7_5" height="46" width="47.692" stroke="#727272" stroke-miterlimit="10" y="240" x="343.85" fill="#727272"/>
  <rect id="8_5" height="46" width="47.692" stroke="#727272" stroke-miterlimit="10" y="240" x="391.54" fill="#727272"/>
  <rect id="9_5" height="46" width="47.692" stroke="#727272" stroke-miterlimit="10" y="240" x="439.23" fill="#727272"/>
  <rect id="10_5" height="46" width="47.692" stroke="#727272" stroke-miterlimit="10" y="240" x="486.92" fill="#727272"/>
  <rect id="11_5" height="46" width="47.692" stroke="#727272" stroke-miterlimit="10" y="240" x="534.61" fill="#727272"/>
  <rect id="12_5" height="46" width="47.692" stroke="#727272" stroke-miterlimit="10" y="240" x="582.31" fill="#727272"/>
  <rect id="0_6" height="46" width="47.692" stroke="#727272" stroke-miterlimit="10" y="286" x="10" fill="#727272"/>
  <rect id="1_6" height="46" width="47.692" stroke="#727272" stroke-miterlimit="10" y="286" x="57.692" fill="#727272"/>
  <rect id="2_6" height="46" width="47.692" stroke="#727272" stroke-miterlimit="10" y="286" x="105.38" fill="#727272"/>
  <rect id="3_6" height="46" width="47.692" stroke="#727272" stroke-miterlimit="10" y="286" x="153.08" fill="#727272"/>
  <rect id="4_6" height="46" width="47.692" stroke="#727272" stroke-miterlimit="10" y="286" x="200.77" fill="#727272"/>
  <rect id="5_6" height="46" width="47.692" stroke="#727272" stroke-miterlimit="10" y="286" x="248.46" fill="#727272"/>
  <rect id="6_6" height="46" width="47.692" stroke="#727272" stroke-miterlimit="10" y="286" x="296.15" fill="#727272"/>
  <rect id="7_6" height="46" width="47.692" stroke="#727272" stroke-miterlimit="10" y="286" x="343.85" fill="#727272"/>
  <rect id="8_6" height="46" width="47.692" stroke="#727272" stroke-miterlimit="10" y="286" x="391.54" fill="#727272"/>
  <rect id="9_6" height="46" width="47.692" stroke="#727272" stroke-miterlimit="10" y="286" x="439.23" fill="#727272"/>
  <rect id="10_6" height="46" width="47.692" stroke="#727272" stroke-miterlimit="10" y="286" x="486.92" fill="#727272"/>
  <rect id="11_6" height="46" width="47.692" stroke="#727272" stroke-miterlimit="10" y="286" x="534.61" fill="#727272"/>
  <rect id="12_6" height="46" width="47.692" stroke="#727272" stroke-miterlimit="10" y="286" x="582.31" fill="#727272"/>
  <rect id="0_7" height="46" width="47.692" stroke="#727272" stroke-miterlimit="10" y="332" x="10" fill="#727272"/>
  <rect id="1_7" height="46" width="47.692" stroke="#727272" stroke-miterlimit="10" y="332" x="57.692" fill="#727272"/>
  <rect id="2_7" height="46" width="47.692" stroke="#727272" stroke-miterlimit="10" y="332" x="105.38" fill="#727272"/>
  <rect id="3_7" height="46" width="47.692" stroke="#727272" stroke-miterlimit="10" y="332" x="153.08" fill="#727272"/>
  <rect id="4_7" height="46" width="47.692" stroke="#727272" stroke-miterlimit="10" y="332" x="200.77" fill="#727272"/>
  <rect id="5_7" height="46" width="47.692" stroke="#727272" stroke-miterlimit="10" y="332" x="248.46" fill="#727272"/>
  <rect id="6_7" height="46" width="47.692" stroke="#727272" stroke-miterlimit="10" y="332" x="296.15" fill="#727272"/>
  <rect id="7_7" height="46" width="47.692" stroke="#727272" stroke-miterlimit="10" y="332" x="343.85" fill="#727272"/>
  <rect id="8_7" height="46" width="47.692" stroke="#727272" stroke-miterlimit="10" y="332" x="391.54" fill="#727272"/>
  <rect id="9_7" height="46" width="47.692" stroke="#727272" stroke-miterlimit="10" y="332" x="439.23" fill="#727272"/>
  <rect id="10_7" height="46" width="47.692" stroke="#727272" stroke-miterlimit="10" y="332" x="486.92" fill="#727272"/>
  <rect id="11_7" height="46" width="47.692" stroke="#727272" stroke-miterlimit="10" y="332" x="534.61" fill="#727272"/>
  <rect id="12_7" height="46" width="47.692" stroke="#727272" stroke-miterlimit="10" y="332" x="582.31" fill="#727272"/>
  <rect id="0_8" height="46" width="47.692" stroke="#727272" stroke-miterlimit="10" y="378" x="10" fill="#727272"/>
  <rect id="1_8" height="46" width="47.692" stroke="#727272" stroke-miterlimit="10" y="378" x="57.692" fill="#727272"/>
  <rect id="2_8" height="46" width="47.692" stroke="#727272" stroke-miterlimit="10" y="378" x="105.38" fill="#727272"/>
  <rect id="3_8" height="46" width="47.692" stroke="#727272" stroke-miterlimit="10" y="378" x="153.08" fill="#727272"/>
  <rect id="4_8" height="46" width="47.692" stroke="#727272" stroke-miterlimit="10" y="378" x="200.77" fill="#727272"/>
  <rect id="5_8" height="46" width="47.692" stroke="#727272" stroke-miterlimit="10" y="378" x="248.46" fill="#727272"/>
  <rect id="6_8" height="46" width="47.692" stroke="#727272" stroke-miterlimit="10" y="378" x="296.15" fill="#727272"/>
  <rect id="7_8" height="46" width="47.692" stroke="#727272" stroke-miterlimit="10" y="378" x="343.85" fill="#727272"/>
  <rect id="8_8" height="46" width="47.692" stroke="#727272" stroke-miterlimit="10" y="378" x="391.54" fill="#727272"/>
  <rect id="9_8" height="46" width="47.692" stroke="#727272" stroke-miterlimit="10" y="378" x="439.23" fill="#727272"/>
  <rect id="10_8" height="46" width="47.692" stroke="#727272" stroke-miterlimit="10" y="378" x="486.92" fill="#727272"/>
  <rect id="11_8" height="46" width="47.692" stroke="#727272" stroke-miterlimit="10" y="378" x="534.61" fill="#727272"/>
  <rect id="12_8" height="46" width="47.692" stroke="#727272" stroke-miterlimit="10" y="378" x="582.31" fill="#727272"/>
  <rect id="0_9" height="46" width="47.692" stroke="#727272" stroke-miterlimit="10" y="424" x="10" fill="#727272"/>
  <rect id="1_9" height="46" width="47.692" stroke="#727272" stroke-miterlimit="10" y="424" x="57.692" fill="#727272"/>
  <rect id="2_9" height="46" width="47.692" stroke="#727272" stroke-miterlimit="10" y="424" x="105.38" fill="#727272"/>
  <rect id="3_9" height="46" width="47.692" stroke="#727272" stroke-miterlimit="10" y="424" x="153.08" fill="#727272"/>
  <rect id="4_9" height="46" width="47.692" stroke="#727272" stroke-miterlimit="10" y="424" x="200.77" fill="#727272"/>
  <rect id="5_9" height="46" width="47.692" stroke="#727272" stroke-miterlimit="10" y="424" x="248.46" fill="#727272"/>
  <rect id="6_9" height="46" width="47.692" stroke="#727272" stroke-miterlimit="10" y="424" x="296.15" fill="#727272"/>
  <rect id="7_9" height="46" width="47.692" stroke="#727272" stroke-miterlimit="10" y="424" x="343.85" fill="#727272"/>
  <rect id="8_9" height="46" width="47.692" stroke="#727272" stroke-miterlimit="10" y="424" x="391.54" fill="#727272"/>
  <rect id="9_9" height="46" width="47.692" stroke="#727272" stroke-miterlimit="10" y="424" x="439.23" fill="#727272"/>
  <rect id="10_9" height="46" width="47.692" stroke="#727272" stroke-miterlimit="10" y="424" x="486.92" fill="#727272"/>
  <rect id="11_9" height="46" width="47.692" stroke="#727272" stroke-miterlimit="10" y="424" x="534.61" fill="#727272"/>
  <rect id="12_9" height="46" width="47.692" stroke="#727272" stroke-miterlimit="10" y="424" x="582.31" fill="#727272"/>
 </g>
</svg>
