<?xml version="1.0" encoding="UTF-8"?>
<svg width="65" height="40" xmlns="http://www.w3.org/2000/svg">
 <g>
  <title>Heatmap</title>
  <g class="colored_icon" id="Heatmap">
   <g id="svg_8">
    <rect x="35.604" y="36.738" fill="#8A9583" width="2.82" height="2.822" id="svg_9"/>
    <rect x="41.635" y="36.738" fill="#8A9583" width="2.82" height="2.822" id="svg_10"/>
    <rect x="20.544" y="36.738" fill="#8A9583" width="2.822" height="2.822" id="svg_11"/>
    <rect x="35.604" y="33.723" fill="#8A9583" width="2.82" height="2.822" id="svg_12"/>
    <rect x="38.619" y="33.723" fill="#8A9583" width="2.82" height="2.822" id="svg_13"/>
    <rect x="41.635" y="33.723" fill="#8A9583" width="2.82" height="2.822" id="svg_14"/>
    <rect x="8.482" y="33.723" fill="#8A9583" width="2.822" height="2.822" id="svg_15"/>
    <rect x="17.529" y="33.723" fill="#8A9583" width="2.821" height="2.822" id="svg_16"/>
    <rect x="20.544" y="33.723" fill="#8A9583" width="2.822" height="2.822" id="svg_17"/>
    <rect x="26.575" y="33.723" fill="#8A9583" width="2.822" height="2.822" id="svg_18"/>
    <rect x="35.604" y="30.707" fill="#8A9583" width="2.82" height="2.822" id="svg_19"/>
    <rect x="38.715" y="30.707" fill="#8A9583" width="2.824" height="2.822" id="svg_20"/>
    <rect x="41.732" y="30.707" fill="#8A9583" width="2.818" height="2.822" id="svg_21"/>
    <rect x="44.648" y="30.707" fill="#8A9583" width="2.822" height="2.822" id="svg_22"/>
    <rect x="2.451" y="30.707" fill="#8A9583" width="2.822" height="2.822" id="svg_23"/>
    <rect x="8.482" y="30.707" fill="#8A9583" width="2.822" height="2.822" id="svg_24"/>
    <rect x="11.498" y="30.707" fill="#8A9583" width="2.822" height="2.822" id="svg_25"/>
    <rect x="14.513" y="30.707" fill="#8A9583" width="2.822" height="2.822" id="svg_26"/>
    <rect x="17.529" y="30.707" fill="#8A9583" width="2.821" height="2.822" id="svg_27"/>
    <rect x="20.544" y="30.707" fill="#8A9583" width="2.822" height="2.822" id="svg_28"/>
    <rect x="23.56" y="30.707" fill="#8A9583" width="2.822" height="2.822" id="svg_29"/>
    <rect x="26.575" y="30.707" fill="#8A9583" width="2.822" height="2.822" id="svg_30"/>
    <rect x="29.591" y="30.707" fill="#8A9583" width="2.823" height="2.822" id="svg_31"/>
    <rect x="35.604" y="27.684" fill="#8A9583" width="2.82" height="2.82" id="svg_32"/>
    <rect x="38.715" y="27.684" fill="#8A9583" width="2.824" height="2.82" id="svg_33"/>
    <rect x="41.635" y="27.684" fill="#8A9583" width="2.82" height="2.82" id="svg_34"/>
    <rect x="44.648" y="27.684" fill="#8A9583" width="2.822" height="2.82" id="svg_35"/>
    <rect x="50.68" y="27.684" fill="#8A9583" width="2.824" height="2.82" id="svg_36"/>
    <rect x="53.697" y="27.684" fill="#8A9583" width="2.82" height="2.82" id="svg_37"/>
    <rect x="32.617" y="27.684" fill="#8A9583" width="2.821" height="2.82" id="svg_38"/>
    <rect x="2.451" y="27.684" fill="#8A9583" width="2.822" height="2.82" id="svg_39"/>
    <rect x="5.466" y="27.684" fill="#8A9583" width="2.822" height="2.82" id="svg_40"/>
    <rect x="8.482" y="27.684" fill="#8A9583" width="2.822" height="2.82" id="svg_41"/>
    <rect x="11.498" y="27.684" fill="#8A9583" width="2.822" height="2.82" id="svg_42"/>
    <rect x="14.513" y="27.684" fill="#8A9583" width="2.822" height="2.82" id="svg_43"/>
    <rect x="17.529" y="27.684" fill="#8A9583" width="2.821" height="2.82" id="svg_44"/>
    <rect x="20.544" y="27.684" fill="#8A9583" width="2.822" height="2.82" id="svg_45"/>
    <rect x="23.56" y="27.684" fill="#8A9583" width="2.822" height="2.82" id="svg_46"/>
    <rect x="26.575" y="27.684" fill="#8A9583" width="2.822" height="2.82" id="svg_47"/>
    <rect x="29.591" y="27.684" fill="#8A9583" width="2.823" height="2.82" id="svg_48"/>
    <rect x="35.604" y="24.668" fill="#8A9583" width="2.82" height="2.822" id="svg_49"/>
    <rect x="38.619" y="24.668" fill="#8A9583" width="2.82" height="2.822" id="svg_50"/>
    <rect x="41.635" y="24.668" fill="#8A9583" width="2.82" height="2.822" id="svg_51"/>
    <rect x="44.648" y="24.668" fill="#8A9583" width="2.822" height="2.822" id="svg_52"/>
    <rect x="47.666" y="24.668" fill="#8A9583" width="2.822" height="2.822" id="svg_53"/>
    <rect x="50.68" y="24.668" fill="#8A9583" width="2.824" height="2.822" id="svg_54"/>
    <rect x="53.697" y="24.668" fill="#8A9583" width="2.82" height="2.822" id="svg_55"/>
    <rect x="56.713" y="24.668" fill="#8A9583" width="2.82" height="2.822" id="svg_56"/>
    <rect x="32.617" y="24.668" fill="#8A9583" width="2.821" height="2.822" id="svg_57"/>
    <rect x="5.466" y="24.668" fill="#8A9583" width="2.822" height="2.822" id="svg_58"/>
    <rect x="11.498" y="24.668" fill="#8A9583" width="2.822" height="2.822" id="svg_59"/>
    <rect x="14.513" y="24.668" fill="#8A9583" width="2.822" height="2.822" id="svg_60"/>
    <rect x="17.529" y="24.668" fill="#8A9583" width="2.821" height="2.822" id="svg_61"/>
    <rect x="20.544" y="24.668" fill="#8A9583" width="2.822" height="2.822" id="svg_62"/>
    <rect x="23.56" y="24.668" fill="#8A9583" width="2.822" height="2.822" id="svg_63"/>
    <rect x="26.575" y="24.668" fill="#8A9583" width="2.822" height="2.822" id="svg_64"/>
    <rect x="29.591" y="24.668" fill="#8A9583" width="2.823" height="2.822" id="svg_65"/>
    <rect x="35.604" y="21.652" fill="#8A9583" width="2.82" height="2.822" id="svg_66"/>
    <rect x="38.619" y="21.652" fill="#8A9583" width="2.82" height="2.822" id="svg_67"/>
    <rect x="41.635" y="21.652" fill="#8A9583" width="2.82" height="2.822" id="svg_68"/>
    <rect x="47.666" y="21.652" fill="#8A9583" width="2.822" height="2.822" id="svg_69"/>
    <rect x="32.617" y="21.652" fill="#8A9583" width="2.821" height="2.822" id="svg_70"/>
    <rect x="11.498" y="21.652" fill="#8A9583" width="2.822" height="2.822" id="svg_71"/>
    <rect x="14.513" y="21.652" fill="#8A9583" width="2.822" height="2.822" id="svg_72"/>
    <rect x="17.529" y="21.652" fill="#8A9583" width="2.821" height="2.822" id="svg_73"/>
    <rect x="20.544" y="21.652" fill="#8A9583" width="2.822" height="2.822" id="svg_74"/>
    <rect x="23.56" y="21.652" fill="#8A9583" width="2.822" height="2.822" id="svg_75"/>
    <rect x="26.575" y="21.652" fill="#8A9583" width="2.822" height="2.822" id="svg_76"/>
    <rect x="29.591" y="21.652" fill="#8A9583" width="2.823" height="2.822" id="svg_77"/>
    <rect x="35.604" y="18.637" fill="#8A9583" width="2.82" height="2.822" id="svg_78"/>
    <rect x="38.619" y="18.637" fill="#8A9583" width="2.82" height="2.822" id="svg_79"/>
    <rect x="32.617" y="18.637" fill="#8A9583" width="2.821" height="2.822" id="svg_80"/>
    <rect x="14.513" y="18.637" fill="#8A9583" width="2.822" height="2.822" id="svg_81"/>
    <rect x="17.529" y="18.637" fill="#8A9583" width="2.821" height="2.822" id="svg_82"/>
    <rect x="20.544" y="18.637" fill="#8A9583" width="2.822" height="2.822" id="svg_83"/>
    <rect x="23.56" y="18.637" fill="#8A9583" width="2.822" height="2.822" id="svg_84"/>
    <rect x="26.575" y="18.637" fill="#8A9583" width="2.822" height="2.822" id="svg_85"/>
    <rect x="29.591" y="18.637" fill="#8A9583" width="2.823" height="2.822" id="svg_86"/>
    <rect x="35.604" y="15.621" fill="#8A9583" width="2.82" height="2.822" id="svg_87"/>
    <rect x="38.619" y="15.621" fill="#8A9583" width="2.82" height="2.822" id="svg_88"/>
    <rect x="41.635" y="15.621" fill="#8A9583" width="2.82" height="2.822" id="svg_89"/>
    <rect x="44.648" y="15.621" fill="#8A9583" width="2.822" height="2.822" id="svg_90"/>
    <rect x="53.697" y="15.621" fill="#8A9583" width="2.82" height="2.822" id="svg_91"/>
    <rect x="56.713" y="15.621" fill="#8A9583" width="2.82" height="2.822" id="svg_92"/>
    <rect x="32.617" y="15.621" fill="#8A9583" width="2.821" height="2.822" id="svg_93"/>
    <rect x="11.498" y="15.621" fill="#8A9583" width="2.822" height="2.822" id="svg_94"/>
    <rect x="14.513" y="15.621" fill="#8A9583" width="2.822" height="2.822" id="svg_95"/>
    <rect x="17.529" y="15.621" fill="#8A9583" width="2.821" height="2.822" id="svg_96"/>
    <rect x="20.544" y="15.621" fill="#8A9583" width="2.822" height="2.822" id="svg_97"/>
    <rect x="23.56" y="15.621" fill="#8A9583" width="2.822" height="2.822" id="svg_98"/>
    <rect x="26.575" y="15.621" fill="#8A9583" width="2.822" height="2.822" id="svg_99"/>
    <rect x="29.591" y="15.621" fill="#8A9583" width="2.823" height="2.822" id="svg_100"/>
    <rect x="38.619" y="12.605" fill="#8A9583" width="2.82" height="2.821" id="svg_101"/>
    <rect x="41.635" y="12.605" fill="#8A9583" width="2.82" height="2.821" id="svg_102"/>
    <rect x="44.648" y="12.605" fill="#8A9583" width="2.822" height="2.821" id="svg_103"/>
    <rect x="47.666" y="12.605" fill="#8A9583" width="2.822" height="2.821" id="svg_104"/>
    <rect x="50.68" y="12.605" fill="#8A9583" width="2.824" height="2.821" id="svg_105"/>
    <rect x="53.697" y="12.605" fill="#8A9583" width="2.82" height="2.821" id="svg_106"/>
    <rect x="32.617" y="12.605" fill="#8A9583" width="2.821" height="2.821" id="svg_107"/>
    <rect x="8.482" y="12.605" fill="#8A9583" width="2.822" height="2.821" id="svg_108"/>
    <rect x="11.498" y="12.605" fill="#8A9583" width="2.822" height="2.821" id="svg_109"/>
    <rect x="14.513" y="12.605" fill="#8A9583" width="2.822" height="2.821" id="svg_110"/>
    <rect x="17.529" y="12.605" fill="#8A9583" width="2.821" height="2.821" id="svg_111"/>
    <rect x="20.544" y="12.605" fill="#8A9583" width="2.822" height="2.821" id="svg_112"/>
    <rect x="23.56" y="12.605" fill="#8A9583" width="2.822" height="2.821" id="svg_113"/>
    <rect x="26.575" y="12.605" fill="#8A9583" width="2.822" height="2.821" id="svg_114"/>
    <rect x="29.591" y="12.605" fill="#8A9583" width="2.823" height="2.821" id="svg_115"/>
    <rect x="38.619" y="9.486" fill="#8A9583" width="2.82" height="2.822" id="svg_116"/>
    <rect x="44.648" y="9.486" fill="#8A9583" width="2.822" height="2.822" id="svg_117"/>
    <rect x="53.697" y="9.486" fill="#8A9583" width="2.82" height="2.822" id="svg_118"/>
    <rect x="8.482" y="9.486" fill="#8A9583" width="2.822" height="2.822" id="svg_119"/>
    <rect x="14.513" y="9.486" fill="#8A9583" width="2.822" height="2.822" id="svg_120"/>
    <rect x="17.529" y="9.486" fill="#8A9583" width="2.821" height="2.822" id="svg_121"/>
    <rect x="23.56" y="9.486" fill="#8A9583" width="2.822" height="2.822" id="svg_122"/>
    <rect x="26.575" y="9.486" fill="#8A9583" width="2.822" height="2.822" id="svg_123"/>
    <rect x="29.591" y="9.486" fill="#8A9583" width="2.823" height="2.822" id="svg_124"/>
    <rect x="44.648" y="6.47" fill="#8A9583" width="2.822" height="2.822" id="svg_125"/>
    <rect x="32.617" y="6.47" fill="#8A9583" width="2.821" height="2.822" id="svg_126"/>
    <rect x="17.529" y="6.47" fill="#8A9583" width="2.821" height="2.822" id="svg_127"/>
    <rect x="26.575" y="6.47" fill="#8A9583" width="2.822" height="2.822" id="svg_128"/>
    <rect x="29.591" y="6.47" fill="#8A9583" width="2.823" height="2.822" id="svg_129"/>
    <rect x="23.56" y="3.455" fill="#8A9583" width="2.822" height="2.822" id="svg_130"/>
    <rect x="26.575" y="3.455" fill="#8A9583" width="2.822" height="2.822" id="svg_131"/>
    <rect x="29.591" y="3.455" fill="#8A9583" width="2.823" height="2.822" id="svg_132"/>
    <rect x="26.575" y="0.439" fill="#8A9583" width="2.822" height="2.822" id="svg_133"/>
   </g>
  </g>
 </g>

</svg>