<?xml version="1.0" encoding="UTF-8"?>
<svg width="65" height="40" xmlns="http://www.w3.org/2000/svg">
 <g>
  <title>Torschuss</title>
  <g class="colored_icon" id="Torschuss">
   <g id="svg_134">
    <g id="svg_135">
     <path fill="#8A9583" d="m58.765999,11.524c0,0 -1.821999,-1.284 -5.086998,-2.248l-2.891003,4.282l2.142002,6.424003l4.924999,1.608c0,0 2.140999,-3.319998 2.624001,-4.443996c0,0 -0.214001,-2.837997 -1.713001,-5.622001l0,-0.000002l0,-0.000002l0,-0.000001z" id="svg_136"/>
     <path fill="#8A9583" d="m34.508999,11.524c0,0 1.82,-1.284 5.084999,-2.248l2.893002,4.282l-2.143002,6.424003l-4.924999,1.608c0,0 -2.141998,-3.319998 -2.621998,-4.443996c0,0 0.212997,-2.837997 1.711998,-5.622001l0,-0.000002l0,-0.000002l0,-0.000001z" id="svg_137"/>
     <path fill="#8A9583" d="m56.926998,27.806c0,0 0.645,-2.132 0.525002,-5.537001l-4.977001,-1.386999l-5.417,4.063l0.033001,5.18c0,0 3.827,0.983 5.044998,1.084c0.001003,-0.000999 2.625004,-1.102999 4.791,-3.403z" id="svg_138"/>
     <path fill="#8A9583" d="m36.344002,27.806c0,0 -0.643002,-2.132 -0.523998,-5.537001l4.976997,-1.386999l5.417999,4.063l-0.031998,5.18c0,0 -3.827,0.983 -5.046001,1.084c-0.000999,-0.000999 -2.625999,-1.102999 -4.792999,-3.403z" id="svg_139"/>
     <path fill="#8A9583" d="m43.075001,12.94l7.014,-0.025l2.997002,-4.122003c0,0 -2.784,-3.265001 -3.48,-3.908c0,0 -2.033001,-0.803 -5.782001,0c0,0 -2.194,1.98 -3.640999,3.961999l2.891998,4.092999l0,0.000002l0,0.000002l0,0.000001z" id="svg_140"/>
     <path fill="#8A9583" d="m35.830002,28.414l-3.321999,-0.688999c0,0 2.385998,4.777998 9.75,7.233l-1.460003,-2.954002c0,0.000004 -3.531002,-1.431995 -4.967999,-3.589998z" id="svg_141"/>
     <path fill="#8A9583" d="m49.525002,4.104l3.108002,-1.364c0,0 -4.554001,-2.509 -11.979004,-0.243l2.743004,1.561c0.000996,0 3.264996,-0.885 6.127998,0.046z" id="svg_142"/>
     <path fill="#8A9583" d="m57.507,28.414l3.324001,-0.688999c0,0 -2.387001,4.777998 -9.751003,7.233l1.458,-2.954002c0,0.000004 3.533001,-1.431995 4.969002,-3.589998z" id="svg_143"/>
     <path fill="#8A9583" d="m59.458,11.15l0.374001,-3.373c0,0 3.799999,3.747 3.854,11.510996l-2.355,-2.303997c0,0 -0.268002,-3.799999 -1.873001,-5.834002l0,0.000002l0,0.000001z" id="svg_144"/>
     <path fill="#8A9583" d="m33.867001,11.15l-0.375,-3.373c0,0 -3.802,3.747 -3.854,11.510996l2.354,-2.303997c0,0 0.269001,-3.799999 1.875,-5.834002l0,0.000002l0,0.000001z" id="svg_145"/>
    </g>
    <g id="svg_146">
     <path fill="#8A9583" d="m20.441999,30.247999c0,0 11.191,7.844 13.130999,4.359999c1.938,-3.483 -6.327,-9.165998 -11.862,-22.08c0,0 -4.108,0.025 -6.177004,-0.997c0.000006,0.000998 4.934004,14.772001 4.908003,18.716999l0.000002,0.000002z" id="svg_147"/>
     <path fill="#8A9583" d="m20.146,10.064c0,0 -0.808001,-4.133 -0.693001,-5.4c0,0 -2.823999,0.647 -4.620999,0.346c0,0 -1.638,2.367 -2.222,3.000998c0,0.001 2.478004,1.73 7.536,2.053l0,0.000001l0,0.000001z" id="svg_148"/>
     <path fill="#8A9583" d="m11.413,10.37c0,0 3.342,6.773999 3.552999,15.245999l2.460002,1.899c0,0 -1.102001,-8.893999 -4.205998,-14.976999c0.000998,0.000998 -0.076,-0.434 -1.807,-2.168l-0.000001,0l-0.000001,0z" id="svg_149"/>
     <path fill="#8A9583" d="m12.39,21.823999c0,0 -0.167004,-5.215 -3.091002,-14.68l2.557,-3.406c0,0 -1.352,-1.67 -4.279,0.007c-2.928,1.678 -5.67,6.665 -5.883996,6.924c-0.212001,0.258001 -0.622001,2.336001 10.696996,11.155001l0.000001,0l0.000001,0z" id="svg_150"/>
     <path fill="#8A9583" d="m8.251,19.782l-2.228004,-1.959999c0,0 -1.595,2.466999 -0.625,3.019999c0,-0.000998 1.011,0.951 2.853004,-1.059998l0,-0.000002z" id="svg_151"/>
     <path fill="#8A9583" d="m24.858,34.396l-2.452,-1.664001c0,0 -1.278999,2.643002 -0.245001,3.068001c0,0 1.120001,0.820999 2.697001,-1.403999z" id="svg_152"/>
     <path fill="#8A9583" d="m29.486,36.478001l-2.733999,-1.142998c0,0 -0.727001,2.846996 0.370998,3.056999c0,-0.000004 1.262001,0.582996 2.363001,-1.914001z" id="svg_153"/>
     <path fill="#8A9583" d="m2.322,14.344l2.208,2.177999c0,0 -2.224,1.914001 -2.903,1.027c-0.001,0 -1.05,-1.107 0.695,-3.205003l0,0.000001l0,0.000001l0,0.000001z" id="svg_154"/>
    </g>
   </g>
  </g>
 </g>

</svg>